<svg width="621" height="563" viewBox="0 0 621 563" fill="none" xmlns="http://www.w3.org/2000/svg">
<g clip-path="url(#clip0_2_3)">
<path d="M315.144 139.849H88.1505C73.3801 139.849 61.4064 151.823 61.4064 166.593V390.696C61.4064 405.466 73.3801 417.44 88.1505 417.44H315.144C329.914 417.44 341.888 405.466 341.888 390.696V166.593C341.888 151.823 329.914 139.849 315.144 139.849Z" fill="#6C63FF"/>
<path d="M135.818 145.349C117.542 145.349 100.014 152.609 87.0903 165.533C74.1668 178.456 66.9065 195.984 66.9065 214.261V390.696C66.9065 393.486 67.456 396.248 68.5236 398.825C69.5912 401.403 71.1561 403.745 73.1288 405.718C75.1015 407.69 77.4434 409.255 80.0209 410.323C82.5983 411.39 85.3608 411.94 88.1506 411.94H233.023C260.437 411.94 286.728 401.05 306.113 381.665C325.497 362.281 336.387 335.989 336.387 308.576V166.593C336.387 160.959 334.149 155.555 330.165 151.571C326.181 147.587 320.778 145.349 315.143 145.349H135.818Z" fill="white"/>
<path d="M588.691 48.2301H21.9605C21.6953 48.2301 21.4409 48.1247 21.2534 47.9372C21.0659 47.7497 20.9605 47.4953 20.9605 47.2301C20.9605 46.9649 21.0659 46.7105 21.2534 46.523C21.4409 46.3355 21.6953 46.2301 21.9605 46.2301H588.691C588.956 46.2301 589.211 46.3355 589.398 46.523C589.586 46.7105 589.691 46.9649 589.691 47.2301C589.691 47.4953 589.586 47.7497 589.398 47.9372C589.211 48.1247 588.956 48.2301 588.691 48.2301Z" fill="#6C63FF"/>
<path d="M50.3153 18.2097C54.9858 18.2097 58.772 14.3391 58.772 9.5646C58.772 4.79005 54.9858 0.919525 50.3153 0.919525C45.6449 0.919525 41.8587 4.79005 41.8587 9.5646C41.8587 14.3391 45.6449 18.2097 50.3153 18.2097Z" fill="#6C63FF"/>
<path d="M79.5291 18.2097C84.1995 18.2097 87.9857 14.3391 87.9857 9.5646C87.9857 4.79005 84.1995 0.919525 79.5291 0.919525C74.8586 0.919525 71.0725 4.79005 71.0725 9.5646C71.0725 14.3391 74.8586 18.2097 79.5291 18.2097Z" fill="#6C63FF"/>
<path d="M108.743 18.2097C113.413 18.2097 117.199 14.3391 117.199 9.5646C117.199 4.79005 113.413 0.919525 108.743 0.919525C104.072 0.919525 100.286 4.79005 100.286 9.5646C100.286 14.3391 104.072 18.2097 108.743 18.2097Z" fill="#6C63FF"/>
<path d="M142.054 16.3974C141.921 16.3976 141.789 16.3711 141.666 16.3194C141.544 16.2678 141.432 16.192 141.339 16.0967L135.633 10.2636C135.45 10.0768 135.348 9.82585 135.348 9.56444C135.348 9.30303 135.45 9.05202 135.633 8.86522L141.339 3.0327C141.431 2.93734 141.54 2.86105 141.661 2.80825C141.783 2.75545 141.913 2.72718 142.045 2.72507C142.177 2.72297 142.309 2.74708 142.431 2.79599C142.554 2.84491 142.666 2.91768 142.76 3.01008C142.855 3.10248 142.93 3.21268 142.982 3.33432C143.033 3.45597 143.06 3.58663 143.061 3.71877C143.062 3.85091 143.037 3.9819 142.986 4.10418C142.936 4.22645 142.862 4.33757 142.769 4.43113L137.747 9.56443L142.769 14.6982C142.907 14.8389 143 15.0171 143.037 15.2105C143.073 15.4039 143.052 15.6038 142.976 15.7852C142.9 15.9667 142.771 16.1215 142.608 16.2304C142.444 16.3393 142.251 16.3974 142.054 16.3974V16.3974Z" fill="#6C63FF"/>
<path d="M151.643 16.3974C151.446 16.3974 151.253 16.3393 151.089 16.2304C150.925 16.1215 150.797 15.9666 150.721 15.7852C150.645 15.6038 150.624 15.4038 150.66 15.2105C150.697 15.0171 150.79 14.8389 150.928 14.6982L155.949 9.56443L150.928 4.43113C150.834 4.33757 150.761 4.22643 150.711 4.10416C150.66 3.98189 150.635 3.85089 150.636 3.71875C150.637 3.58662 150.664 3.45595 150.715 3.33431C150.767 3.21267 150.842 3.10246 150.937 3.01006C151.031 2.91766 151.143 2.8449 151.266 2.79598C151.388 2.74706 151.52 2.72297 151.652 2.72507C151.784 2.72718 151.914 2.75545 152.035 2.80825C152.157 2.86105 152.266 2.93733 152.357 3.03269L158.063 8.86521C158.246 9.05201 158.348 9.30302 158.348 9.56443C158.348 9.82584 158.246 10.0768 158.063 10.2636L152.357 16.0966C152.264 16.192 152.153 16.2678 152.031 16.3194C151.908 16.3711 151.776 16.3976 151.643 16.3974Z" fill="#6C63FF"/>
<path d="M538.153 1.92041H527.542C527.255 1.92032 526.97 1.97692 526.704 2.08695C526.439 2.19697 526.197 2.35828 525.994 2.56166C525.79 2.76504 525.629 3.00649 525.519 3.27223C525.409 3.53798 525.352 3.82279 525.352 4.11041V14.7304C525.352 15.018 525.409 15.3028 525.519 15.5686C525.629 15.8343 525.79 16.0758 525.994 16.2792C526.197 16.4826 526.439 16.6439 526.704 16.7539C526.97 16.8639 527.255 16.9205 527.542 16.9204H538.153C538.734 16.921 539.293 16.6907 539.705 16.2802C540.118 15.8697 540.35 15.3123 540.352 14.7304V4.11041C540.35 3.5285 540.118 2.97116 539.705 2.56062C539.293 2.15009 538.734 1.91985 538.153 1.92041Z" fill="#6C63FF"/>
<path d="M512.152 1.92041H501.542C501.255 1.92032 500.97 1.97692 500.704 2.08695C500.439 2.19697 500.197 2.35828 499.994 2.56166C499.79 2.76504 499.629 3.00649 499.519 3.27223C499.409 3.53798 499.352 3.82279 499.352 4.11041V14.7304C499.352 15.018 499.409 15.3028 499.519 15.5686C499.629 15.8343 499.79 16.0758 499.994 16.2792C500.197 16.4826 500.439 16.6439 500.704 16.7539C500.97 16.8639 501.255 16.9205 501.542 16.9204H512.152C512.734 16.921 513.293 16.6907 513.705 16.2802C514.118 15.8697 514.35 15.3123 514.352 14.7304V4.11041C514.35 3.5285 514.118 2.97116 513.705 2.56062C513.293 2.15009 512.734 1.91985 512.152 1.92041Z" fill="#6C63FF"/>
<path d="M562.653 2.42041H552.042C551.755 2.42032 551.47 2.47692 551.204 2.58695C550.939 2.69697 550.697 2.85828 550.494 3.06166C550.29 3.26504 550.129 3.50649 550.019 3.77223C549.909 4.03798 549.852 4.32279 549.852 4.61041V15.2304C549.852 15.518 549.909 15.8028 550.019 16.0686C550.129 16.3343 550.29 16.5758 550.494 16.7792C550.697 16.9826 550.939 17.1439 551.204 17.2539C551.47 17.3639 551.755 17.4205 552.042 17.4204H562.653C563.234 17.421 563.793 17.1907 564.205 16.7802C564.618 16.3697 564.85 15.8123 564.852 15.2304V4.61041C564.85 4.0285 564.618 3.47116 564.205 3.06062C563.793 2.65009 563.234 2.41985 562.653 2.42041V2.42041Z" fill="#6C63FF"/>
<path d="M349.877 18H280.877C278.49 18 276.201 17.0518 274.513 15.364C272.825 13.6761 271.877 11.3869 271.877 9C271.877 6.61305 272.825 4.32387 274.513 2.63605C276.201 0.94822 278.49 0 280.877 0H349.877C352.264 0 354.553 0.94822 356.241 2.63605C357.929 4.32387 358.877 6.61305 358.877 9C358.877 11.3869 357.929 13.6761 356.241 15.364C354.553 17.0518 352.264 18 349.877 18V18Z" fill="#6C63FF"/>
<path d="M236.268 317.4H82.2752C81.3945 317.4 80.5498 317.05 79.927 316.427C79.3043 315.804 78.9544 314.959 78.9544 314.079C78.9544 313.198 79.3043 312.353 79.927 311.73C80.5498 311.108 81.3945 310.758 82.2752 310.758H236.268C237.149 310.758 237.993 311.108 238.616 311.73C239.239 312.353 239.589 313.198 239.589 314.079C239.589 314.959 239.239 315.804 238.616 316.427C237.993 317.05 237.149 317.4 236.268 317.4Z" fill="#00A9A5"/>
<path d="M236.268 222.677H4.32138C3.88479 222.678 3.45234 222.592 3.04877 222.426C2.6452 222.259 2.27843 222.015 1.96945 221.706C1.66047 221.398 1.41536 221.032 1.24811 220.628C1.08086 220.225 0.994751 219.793 0.994751 219.356C0.994751 218.92 1.08086 218.487 1.24811 218.084C1.41536 217.681 1.66047 217.314 1.96945 217.006C2.27843 216.697 2.6452 216.453 3.04877 216.286C3.45234 216.12 3.88479 216.035 4.32138 216.035H236.268C237.148 216.037 237.991 216.387 238.612 217.01C239.234 217.633 239.583 218.476 239.583 219.356C239.583 220.236 239.234 221.08 238.612 221.702C237.991 222.325 237.148 222.675 236.268 222.677V222.677Z" fill="#00A9A5"/>
<path d="M236.272 246.391H4.31616C3.43573 246.392 2.5919 246.743 1.96988 247.366C1.34786 247.989 0.998505 248.834 0.998505 249.714C0.998505 250.595 1.34786 251.439 1.96988 252.062C2.5919 252.685 3.43573 253.036 4.31616 253.038H236.272C237.153 253.036 237.997 252.685 238.619 252.062C239.241 251.439 239.59 250.595 239.59 249.714C239.59 248.834 239.241 247.989 238.619 247.366C237.997 246.743 237.153 246.392 236.272 246.391V246.391Z" fill="#00A9A5"/>
<path d="M236.268 283.398H4.32138C3.44063 283.398 2.59596 283.048 1.97318 282.425C1.35039 281.802 1.00052 280.958 1.00052 280.077C1.00052 279.196 1.35039 278.352 1.97318 277.729C2.59596 277.106 3.44063 276.756 4.32138 276.756H236.268C237.149 276.756 237.993 277.106 238.616 277.729C239.239 278.352 239.589 279.196 239.589 280.077C239.589 280.958 239.239 281.802 238.616 282.425C237.993 283.048 237.149 283.398 236.268 283.398V283.398Z" fill="#00A9A5"/>
<path d="M431.582 548.714L420.933 548.713L415.868 507.64L431.584 507.641L431.582 548.714Z" fill="#A0616A"/>
<path d="M431.957 559.823L399.211 559.822V559.408C399.211 556.027 400.554 552.786 402.944 550.395C405.334 548.005 408.576 546.662 411.956 546.662H411.957L417.939 542.124L429.099 546.663L431.957 546.663L431.957 559.823Z" fill="#2F2E41"/>
<path d="M538.725 548.714L528.077 548.713L523.011 507.64L538.728 507.641L538.725 548.714Z" fill="#A0616A"/>
<path d="M539.1 559.823L506.355 559.822V559.408C506.355 556.027 507.698 552.786 510.088 550.395C512.478 548.005 515.72 546.662 519.1 546.662H519.101L525.082 542.124L536.242 546.663L539.101 546.663L539.1 559.823Z" fill="#2F2E41"/>
<path d="M440.27 312.748C440.27 312.748 433.277 320.17 432.981 324.986C432.686 329.801 436.33 321.054 432.686 329.801C429.042 338.547 429.042 332.716 429.042 338.547C429.042 344.378 421.319 350.072 421.319 350.072L408.585 402.464L415.922 525.138H431.957C446.859 479.713 453.792 444.635 445.806 428.927L468.074 379.432C468.074 379.432 510.152 511.101 511.871 512.653C513.59 514.205 513.59 512.018 513.59 514.204C513.59 516.391 511.404 514.205 513.59 516.391L523.795 526.595L539.101 525.138C539.101 525.138 541.149 429.808 524.09 413.332C524.09 413.332 528.03 362.313 524.09 362.457C520.15 362.6 520.15 369.16 520.15 362.6C520.15 356.04 524.819 354.29 524.819 354.29L511.699 308.212L440.27 312.748Z" fill="#2F2E41"/>
<path d="M522.892 211.185L508.072 273.235L511.572 296.315L515.772 323.965L501.252 323.025L478.782 321.565L437.062 318.865L433.412 196.415L452.552 176.415L455.972 166.705L483.642 166.535L490.262 178.195L507.282 183.035C509.47 184.423 511.525 186.01 513.422 187.775C517.622 191.665 521.342 196.605 523.082 201.665C523.607 203.14 523.939 204.676 524.072 206.235L522.892 211.185Z" fill="#E6E6E6"/>
<path d="M394.095 368.622C395.21 368.006 396.177 367.155 396.931 366.128C397.685 365.101 398.206 363.922 398.46 362.674C398.713 361.425 398.692 360.137 398.399 358.897C398.105 357.657 397.546 356.496 396.759 355.494L417.866 317.068L408.673 308.617L383.938 354.439C382.349 355.888 381.348 357.87 381.123 360.009C380.897 362.147 381.465 364.294 382.717 366.042C383.969 367.79 385.818 369.019 387.915 369.494C390.012 369.97 392.211 369.659 394.095 368.622V368.622Z" fill="#E6E6E6"/>
<path d="M445.574 188.929L440.654 277.064L416.951 332.45L401.524 352.909L403.278 343.639L392.644 338.318L391.645 337.822L412.061 258.594L413.941 227.807C414.265 222.509 415.686 217.335 418.112 212.614C420.538 207.893 423.918 203.727 428.037 200.379L439.845 190.788L445.574 188.929Z" fill="#E6E6E6"/>
<path d="M394.095 368.622C395.21 368.006 396.177 367.155 396.931 366.128C397.685 365.101 398.206 363.922 398.46 362.674C398.713 361.425 398.692 360.137 398.399 358.897C398.105 357.657 397.546 356.496 396.759 355.494L417.866 317.068L408.673 308.617L383.938 354.439C382.349 355.888 381.348 357.87 381.123 360.009C380.897 362.147 381.465 364.294 382.717 366.042C383.969 367.79 385.818 369.019 387.915 369.494C390.012 369.97 392.211 369.659 394.095 368.622V368.622Z" fill="#A0616A"/>
<path d="M445.574 188.929L440.654 277.064L416.951 332.45L401.524 352.909L403.278 343.639L392.644 338.318L391.645 337.822L412.061 258.594L413.941 227.807C414.265 222.509 415.686 217.335 418.112 212.614C420.538 207.893 423.918 203.727 428.037 200.379L439.845 190.788L445.574 188.929Z" fill="#E6E6E6"/>
<path d="M468.419 191.967H241.426C226.656 191.967 214.682 203.941 214.682 218.711V335.814C214.682 350.584 226.656 362.558 241.426 362.558H468.419C483.19 362.558 495.163 350.584 495.163 335.814V218.711C495.163 203.941 483.19 191.967 468.419 191.967Z" fill="white"/>
<path d="M468.419 363.558H241.426C234.071 363.55 227.019 360.624 221.817 355.423C216.616 350.221 213.691 343.169 213.682 335.814V218.711C213.691 211.356 216.616 204.304 221.817 199.102C227.019 193.901 234.071 190.975 241.426 190.967H468.419C475.775 190.976 482.827 193.901 488.028 199.103C493.229 204.304 496.155 211.356 496.163 218.711V335.814C496.155 343.169 493.229 350.221 488.028 355.423C482.827 360.624 475.775 363.55 468.419 363.558V363.558ZM241.426 192.967C234.599 192.967 228.05 195.679 223.222 200.507C218.394 205.335 215.682 211.884 215.682 218.711V262.481C215.682 288.758 226.121 313.958 244.701 332.539C263.282 351.12 288.482 361.558 314.759 361.558H468.419C475.247 361.558 481.795 358.846 486.623 354.018C491.451 349.19 494.163 342.642 494.163 335.814V218.711C494.163 215.331 493.497 211.983 492.203 208.859C490.91 205.736 489.013 202.898 486.623 200.507C484.232 198.117 481.394 196.221 478.271 194.927C475.147 193.633 471.8 192.967 468.419 192.967L241.426 192.967Z" fill="#3F3D56"/>
<path d="M301.423 316.263H248.423C246.49 316.263 244.923 317.83 244.923 319.763C244.923 321.696 246.49 323.263 248.423 323.263H301.423C303.356 323.263 304.923 321.696 304.923 319.763C304.923 317.83 303.356 316.263 301.423 316.263Z" fill="#6C63FF"/>
<path d="M461.423 306.763H424.423C422.49 306.763 420.923 308.33 420.923 310.263V329.263C420.923 331.196 422.49 332.763 424.423 332.763H461.423C463.356 332.763 464.923 331.196 464.923 329.263V310.263C464.923 308.33 463.356 306.763 461.423 306.763Z" fill="#6C63FF"/>
<path d="M262.923 257.763C272.864 257.763 280.923 249.704 280.923 239.763C280.923 229.821 272.864 221.763 262.923 221.763C252.981 221.763 244.923 229.821 244.923 239.763C244.923 249.704 252.981 257.763 262.923 257.763Z" fill="#6C63FF"/>
<path d="M468.797 161.381C481.279 161.381 491.398 151.262 491.398 138.78C491.398 126.297 481.279 116.178 468.797 116.178C456.314 116.178 446.195 126.297 446.195 138.78C446.195 151.262 456.314 161.381 468.797 161.381Z" fill="#A0616A"/>
<path d="M487.339 150.462C487.515 151.812 485.072 151.955 484.521 150.71C483.971 149.464 484.685 148.053 485.38 146.881L486.992 144.163C487.296 143.651 487.472 143.074 487.508 142.479C487.543 141.885 487.436 141.291 487.195 140.747C486.955 140.202 486.587 139.723 486.124 139.35C485.66 138.976 485.114 138.719 484.531 138.599C486.007 135.281 484.406 131.139 481.466 129.007C478.527 126.875 474.153 130.864 470.587 131.548C467.021 132.233 464.166 129.503 460.915 131.121L462.868 126.619L452.058 131.277L454.57 126.212C451.841 126.361 450.68 129.683 450.136 132.361C449.557 135.214 448.037 138.781 444.935 138.19C444.2 138.026 443.525 137.657 442.99 137.127C442.455 136.596 442.08 135.926 441.909 135.192C439.513 125.95 446.471 115.848 455.694 114.227C456.681 111.504 458.514 109.168 460.924 107.561C463.334 105.955 466.196 105.163 469.089 105.3C471.982 105.438 474.756 106.499 477.002 108.327C479.249 110.155 480.852 112.655 481.575 115.459L484.599 111.757L485.189 117.003C487.362 116.772 489.415 118.306 490.472 120.22C491.528 122.133 491.028 124.603 492.042 126.539C496.587 135.216 495.084 144.985 488.066 151.64" fill="#2F2E41"/>
<path d="M566.609 544.698C567.074 544.719 567.534 544.597 567.928 544.348C568.321 544.099 568.628 543.736 568.807 543.306C568.987 542.877 569.03 542.403 568.931 541.948C568.832 541.494 568.596 541.08 568.254 540.765L568.099 540.146C568.119 540.097 568.14 540.047 568.16 539.998C568.629 538.892 569.413 537.949 570.416 537.287C571.418 536.626 572.594 536.275 573.795 536.28C574.996 536.284 576.169 536.644 577.167 537.312C578.164 537.981 578.942 538.93 579.402 540.04C581.24 544.468 583.581 548.904 584.158 553.586C584.411 555.655 584.304 557.753 583.841 559.786C588.16 550.366 590.402 540.128 590.416 529.765C590.417 527.165 590.273 524.567 589.984 521.982C589.745 519.864 589.413 517.761 588.989 515.672C586.674 504.341 581.705 493.72 574.489 484.683C570.996 482.777 568.172 479.846 566.396 476.286C565.752 475.006 565.298 473.64 565.046 472.23C565.44 472.282 566.531 466.281 566.234 465.913C566.783 465.08 567.766 464.666 568.366 463.853C571.348 459.809 575.457 460.515 577.602 466.01C582.184 468.323 582.229 472.158 579.417 475.847C577.628 478.194 577.382 481.369 575.813 483.882C575.974 484.088 576.142 484.289 576.304 484.495C579.255 488.291 581.828 492.366 583.985 496.664C583.46 491.849 584.086 486.979 585.811 482.454C587.559 478.237 590.836 474.685 593.722 471.039C594.485 470.06 595.521 469.329 596.7 468.938C597.879 468.548 599.146 468.516 600.343 468.846C601.54 469.176 602.613 469.853 603.425 470.792C604.237 471.732 604.752 472.89 604.906 474.123C604.912 474.176 604.917 474.23 604.923 474.284C604.494 474.526 604.075 474.782 603.664 475.054C603.149 475.398 602.749 475.891 602.518 476.466C602.287 477.042 602.235 477.673 602.369 478.279C602.503 478.885 602.817 479.435 603.27 479.859C603.722 480.283 604.292 480.561 604.905 480.655L604.968 480.665C604.815 482.21 604.546 483.741 604.161 485.245C607.863 499.56 599.871 504.774 588.459 505.009C588.207 505.138 587.962 505.267 587.71 505.39C589.877 511.53 591.236 517.926 591.753 524.417C592.046 528.247 592.029 532.094 591.702 535.921L591.721 535.785C592.548 531.53 594.818 527.69 598.148 524.915C603.093 520.852 610.08 519.356 615.416 516.091C615.983 515.726 616.642 515.532 617.316 515.531C617.99 515.529 618.65 515.72 619.219 516.081C619.788 516.443 620.241 516.959 620.526 517.57C620.811 518.18 620.916 518.86 620.827 519.528L620.805 519.67C620.01 519.994 619.236 520.367 618.487 520.788C618.058 521.029 617.638 521.286 617.228 521.557C616.712 521.902 616.313 522.394 616.081 522.97C615.85 523.545 615.799 524.177 615.933 524.783C616.067 525.388 616.381 525.939 616.833 526.363C617.286 526.787 617.856 527.065 618.469 527.159L618.532 527.169C618.577 527.175 618.616 527.182 618.661 527.188C617.302 530.433 615.395 533.42 613.022 536.018C610.708 548.515 600.766 549.7 590.132 546.061H590.126C588.959 551.131 587.268 556.067 585.081 560.787H567.061C566.996 560.587 566.938 560.38 566.88 560.18C568.548 560.285 570.223 560.185 571.866 559.883C570.529 558.243 569.192 556.589 567.855 554.949C567.826 554.918 567.798 554.885 567.771 554.852C567.093 554.012 566.409 553.179 565.73 552.339L565.73 552.338C565.694 549.764 565.989 547.197 566.609 544.698L566.609 544.698Z" fill="#6C63FF"/>
<path d="M288.058 560.841C288.058 560.997 288.088 561.152 288.148 561.297C288.207 561.441 288.295 561.573 288.406 561.683C288.516 561.794 288.648 561.882 288.792 561.941C288.937 562.001 289.092 562.031 289.248 562.031H619.538C619.854 562.031 620.157 561.905 620.38 561.682C620.603 561.459 620.728 561.156 620.728 560.841C620.728 560.525 620.603 560.223 620.38 559.999C620.157 559.776 619.854 559.651 619.538 559.651H289.248C289.092 559.65 288.937 559.681 288.792 559.74C288.648 559.8 288.516 559.888 288.406 559.998C288.295 560.109 288.207 560.24 288.148 560.385C288.088 560.53 288.058 560.684 288.058 560.841V560.841Z" fill="#00A9A5"/>
<path d="M478.423 363.274C479.515 362.618 480.452 361.733 481.169 360.68C481.886 359.627 482.365 358.431 482.574 357.174C482.783 355.917 482.716 354.63 482.379 353.402C482.041 352.173 481.441 351.033 480.62 350.059L500.348 310.908L490.86 302.788L467.769 349.46C466.233 350.965 465.302 352.981 465.153 355.126C465.004 357.271 465.647 359.397 466.96 361.099C468.274 362.802 470.166 363.964 472.278 364.364C474.391 364.765 476.577 364.377 478.423 363.274V363.274Z" fill="#A0616A"/>
<path d="M523.082 201.665L524.072 206.235L521.702 270.115L511.572 296.315L501.252 323.025L499.982 326.315L485.292 347.305L486.712 337.975L475.892 333.035L474.882 332.585L478.782 321.565L487.752 296.245L491.632 285.285L492.472 252.675L493.252 221.845C493.388 216.539 494.623 211.319 496.88 206.515C499.136 201.711 502.365 197.427 506.362 193.935L513.422 187.775C517.622 191.665 521.342 196.605 523.082 201.665Z" fill="#E6E6E6"/>
<path d="M287.072 361.247L240.194 360.247C234.363 360.239 228.773 357.918 224.65 353.794C220.528 349.67 218.209 344.079 218.202 338.247L216.202 289.235C221.958 329.193 244.078 354.54 287.072 361.247Z" fill="#6C63FF"/>
</g>
<defs>
<clipPath id="clip0_2_3">
<rect width="619.863" height="562.031" fill="white" transform="translate(0.994751)"/>
</clipPath>
</defs>
</svg>
