<svg xmlns="http://www.w3.org/2000/svg" version="1.1" xmlns:xlink="http://www.w3.org/1999/xlink" xmlns:svgjs="http://svgjs.com/svgjs" width="1440" height="560" preserveAspectRatio="none" viewBox="0 0 1440 560">
    <g mask="url(&quot;#SvgjsMask1528&quot;)" fill="none">
        <rect width="1440" height="560" x="0" y="0" fill="url(#SvgjsLinearGradient1529)"></rect>
        <path d="M-105.3 391.22L-105.3 391.22" stroke="rgba(0, 169, 165, 1)" stroke-width="1.5"></path>
        <path d="M-105.3 391.22L61.04 396.41" stroke="rgba(0, 169, 165, 1)" stroke-width="1.5"></path>
        <path d="M-105.3 391.22L-42.75 552.8" stroke="rgba(0, 169, 165, 1)" stroke-width="1.5"></path>
        <path d="M-105.3 391.22L90.8 533.32" stroke="rgba(0, 169, 165, 1)" stroke-width="1.5"></path>
        <path d="M-105.3 391.22L-49.27 657.23" stroke="rgba(0, 169, 165, 1)" stroke-width="1.5"></path>
        <path d="M-105.3 391.22L40.87 696.73" stroke="rgba(0, 169, 165, 1)" stroke-width="1.5"></path>
        <path d="M-105.3 391.22L261.27 371.93" stroke="rgba(0, 169, 165, 1)" stroke-width="1.5"></path>
        <path d="M-42.75 552.8L-42.75 552.8" stroke="rgba(0, 169, 165, 1)" stroke-width="1.5"></path>
        <path d="M-42.75 552.8L-49.27 657.23" stroke="rgba(0, 169, 165, 1)" stroke-width="1.5"></path>
        <path d="M-42.75 552.8L90.8 533.32" stroke="rgba(0, 169, 165, 1)" stroke-width="1.5"></path>
        <path d="M-42.75 552.8L40.87 696.73" stroke="rgba(0, 169, 165, 1)" stroke-width="1.5"></path>
        <path d="M-49.27 657.23L-49.27 657.23" stroke="rgba(0, 169, 165, 1)" stroke-width="1.5"></path>
        <path d="M-49.27 657.23L40.87 696.73" stroke="rgba(0, 169, 165, 1)" stroke-width="1.5"></path>
        <path d="M-49.27 657.23L90.8 533.32" stroke="rgba(0, 169, 165, 1)" stroke-width="1.5"></path>
        <path d="M61.04 396.41L61.04 396.41" stroke="rgba(0, 169, 165, 1)" stroke-width="1.5"></path>
        <path d="M61.04 396.41L90.8 533.32" stroke="rgba(0, 169, 165, 1)" stroke-width="1.5"></path>
        <path d="M61.04 396.41L-42.75 552.8" stroke="rgba(0, 169, 165, 1)" stroke-width="1.5"></path>
        <path d="M61.04 396.41L261.27 371.93" stroke="rgba(0, 169, 165, 1)" stroke-width="1.5"></path>
        <path d="M61.04 396.41L-49.27 657.23" stroke="rgba(0, 169, 165, 1)" stroke-width="1.5"></path>
        <path d="M61.04 396.41L40.87 696.73" stroke="rgba(0, 169, 165, 1)" stroke-width="1.5"></path>
        <path d="M90.8 533.32L90.8 533.32" stroke="rgba(0, 169, 165, 1)" stroke-width="1.5"></path>
        <path d="M90.8 533.32L40.87 696.73" stroke="rgba(0, 169, 165, 1)" stroke-width="1.5"></path>
        <path d="M40.87 696.73L40.87 696.73" stroke="rgba(0, 169, 165, 1)" stroke-width="1.5"></path>
        <path d="M261.27 371.93L261.27 371.93" stroke="rgba(0, 169, 165, 1)" stroke-width="1.5"></path>
        <path d="M261.27 371.93L370.98 402.72" stroke="rgba(0, 169, 165, 1)" stroke-width="1.5"></path>
        <path d="M253.36 696.3L253.36 696.3" stroke="rgba(0, 169, 165, 1)" stroke-width="1.5"></path>
        <path d="M253.36 696.3L349.14 560.73" stroke="rgba(0, 169, 165, 1)" stroke-width="1.5"></path>
        <path d="M253.36 696.3L40.87 696.73" stroke="rgba(0, 169, 165, 1)" stroke-width="1.5"></path>
        <path d="M253.36 696.3L90.8 533.32" stroke="rgba(0, 169, 165, 1)" stroke-width="1.5"></path>
        <path d="M253.36 696.3L-49.27 657.23" stroke="rgba(0, 169, 165, 1)" stroke-width="1.5"></path>
        <path d="M253.36 696.3L529.88 557.02" stroke="rgba(0, 169, 165, 1)" stroke-width="1.5"></path>
        <path d="M370.98 402.72L370.98 402.72" stroke="rgba(0, 169, 165, 1)" stroke-width="1.5"></path>
        <path d="M370.98 402.72L523.72 360.93" stroke="rgba(0, 169, 165, 1)" stroke-width="1.5"></path>
        <path d="M370.98 402.72L349.14 560.73" stroke="rgba(0, 169, 165, 1)" stroke-width="1.5"></path>
        <path d="M349.14 560.73L349.14 560.73" stroke="rgba(0, 169, 165, 1)" stroke-width="1.5"></path>
        <path d="M349.14 560.73L529.88 557.02" stroke="rgba(0, 169, 165, 1)" stroke-width="1.5"></path>
        <path d="M523.72 360.93L523.72 360.93" stroke="rgba(0, 169, 165, 1)" stroke-width="1.5"></path>
        <path d="M523.72 360.93L640.73 394.36" stroke="rgba(0, 169, 165, 1)" stroke-width="1.5"></path>
        <path d="M523.72 360.93L639.56 505.72" stroke="rgba(0, 169, 165, 1)" stroke-width="1.5"></path>
        <path d="M523.72 360.93L529.88 557.02" stroke="rgba(0, 169, 165, 1)" stroke-width="1.5"></path>
        <path d="M529.88 557.02L529.88 557.02" stroke="rgba(0, 169, 165, 1)" stroke-width="1.5"></path>
        <path d="M529.88 557.02L639.56 505.72" stroke="rgba(0, 169, 165, 1)" stroke-width="1.5"></path>
        <path d="M529.88 557.02L640.73 394.36" stroke="rgba(0, 169, 165, 1)" stroke-width="1.5"></path>
        <path d="M529.88 557.02L691.04 708.77" stroke="rgba(0, 169, 165, 1)" stroke-width="1.5"></path>
        <path d="M529.88 557.02L370.98 402.72" stroke="rgba(0, 169, 165, 1)" stroke-width="1.5"></path>
        <path d="M640.73 394.36L640.73 394.36" stroke="rgba(0, 169, 165, 1)" stroke-width="1.5"></path>
        <path d="M640.73 394.36L639.56 505.72" stroke="rgba(0, 169, 165, 1)" stroke-width="1.5"></path>
        <path d="M639.56 505.72L639.56 505.72" stroke="rgba(0, 169, 165, 1)" stroke-width="1.5"></path>
        <path d="M639.56 505.72L792.11 404.48" stroke="rgba(0, 169, 165, 1)" stroke-width="1.5"></path>
        <path d="M691.04 708.77L691.04 708.77" stroke="rgba(0, 169, 165, 1)" stroke-width="1.5"></path>
        <path d="M691.04 708.77L801.16 674.95" stroke="rgba(0, 169, 165, 1)" stroke-width="1.5"></path>
        <path d="M691.04 708.77L639.56 505.72" stroke="rgba(0, 169, 165, 1)" stroke-width="1.5"></path>
        <path d="M691.04 708.77L837.35 516.11" stroke="rgba(0, 169, 165, 1)" stroke-width="1.5"></path>
        <path d="M691.04 708.77L955.75 666.51" stroke="rgba(0, 169, 165, 1)" stroke-width="1.5"></path>
        <path d="M691.04 708.77L640.73 394.36" stroke="rgba(0, 169, 165, 1)" stroke-width="1.5"></path>
        <path d="M832.33 257.37L832.33 257.37" stroke="rgba(0, 169, 165, 1)" stroke-width="1.5"></path>
        <path d="M832.33 257.37L792.11 404.48" stroke="rgba(0, 169, 165, 1)" stroke-width="1.5"></path>
        <path d="M832.33 257.37L992.75 247.83" stroke="rgba(0, 169, 165, 1)" stroke-width="1.5"></path>
        <path d="M792.11 404.48L792.11 404.48" stroke="rgba(0, 169, 165, 1)" stroke-width="1.5"></path>
        <path d="M792.11 404.48L837.35 516.11" stroke="rgba(0, 169, 165, 1)" stroke-width="1.5"></path>
        <path d="M792.11 404.48L640.73 394.36" stroke="rgba(0, 169, 165, 1)" stroke-width="1.5"></path>
        <path d="M837.35 516.11L837.35 516.11" stroke="rgba(0, 169, 165, 1)" stroke-width="1.5"></path>
        <path d="M837.35 516.11L801.16 674.95" stroke="rgba(0, 169, 165, 1)" stroke-width="1.5"></path>
        <path d="M837.35 516.11L962.07 411.15" stroke="rgba(0, 169, 165, 1)" stroke-width="1.5"></path>
        <path d="M837.35 516.11L1008.41 511.4" stroke="rgba(0, 169, 165, 1)" stroke-width="1.5"></path>
        <path d="M801.16 674.95L801.16 674.95" stroke="rgba(0, 169, 165, 1)" stroke-width="1.5"></path>
        <path d="M801.16 674.95L955.75 666.51" stroke="rgba(0, 169, 165, 1)" stroke-width="1.5"></path>
        <path d="M801.16 674.95L639.56 505.72" stroke="rgba(0, 169, 165, 1)" stroke-width="1.5"></path>
        <path d="M801.16 674.95L1008.41 511.4" stroke="rgba(0, 169, 165, 1)" stroke-width="1.5"></path>
        <path d="M966.67 -40.02L966.67 -40.02" stroke="rgba(0, 169, 165, 1)" stroke-width="1.5"></path>
        <path d="M966.67 -40.02L1006.98 60.76" stroke="rgba(0, 169, 165, 1)" stroke-width="1.5"></path>
        <path d="M966.67 -40.02L1146.59 -83.7" stroke="rgba(0, 169, 165, 1)" stroke-width="1.5"></path>
        <path d="M966.67 -40.02L992.75 247.83" stroke="rgba(0, 169, 165, 1)" stroke-width="1.5"></path>
        <path d="M966.67 -40.02L1096.06 244.23" stroke="rgba(0, 169, 165, 1)" stroke-width="1.5"></path>
        <path d="M1006.98 60.76L1006.98 60.76" stroke="rgba(0, 169, 165, 1)" stroke-width="1.5"></path>
        <path d="M1006.98 60.76L992.75 247.83" stroke="rgba(0, 169, 165, 1)" stroke-width="1.5"></path>
        <path d="M1006.98 60.76L1146.59 -83.7" stroke="rgba(0, 169, 165, 1)" stroke-width="1.5"></path>
        <path d="M1006.98 60.76L1096.06 244.23" stroke="rgba(0, 169, 165, 1)" stroke-width="1.5"></path>
        <path d="M1006.98 60.76L832.33 257.37" stroke="rgba(0, 169, 165, 1)" stroke-width="1.5"></path>
        <path d="M1006.98 60.76L1268.34 104.06" stroke="rgba(0, 169, 165, 1)" stroke-width="1.5"></path>
        <path d="M992.75 247.83L992.75 247.83" stroke="rgba(0, 169, 165, 1)" stroke-width="1.5"></path>
        <path d="M992.75 247.83L1096.06 244.23" stroke="rgba(0, 169, 165, 1)" stroke-width="1.5"></path>
        <path d="M962.07 411.15L962.07 411.15" stroke="rgba(0, 169, 165, 1)" stroke-width="1.5"></path>
        <path d="M962.07 411.15L1008.41 511.4" stroke="rgba(0, 169, 165, 1)" stroke-width="1.5"></path>
        <path d="M962.07 411.15L1125.29 404.63" stroke="rgba(0, 169, 165, 1)" stroke-width="1.5"></path>
        <path d="M962.07 411.15L992.75 247.83" stroke="rgba(0, 169, 165, 1)" stroke-width="1.5"></path>
        <path d="M1008.41 511.4L1008.41 511.4" stroke="rgba(0, 169, 165, 1)" stroke-width="1.5"></path>
        <path d="M1008.41 511.4L1145.85 526.48" stroke="rgba(0, 169, 165, 1)" stroke-width="1.5"></path>
        <path d="M955.75 666.51L955.75 666.51" stroke="rgba(0, 169, 165, 1)" stroke-width="1.5"></path>
        <path d="M955.75 666.51L1008.41 511.4" stroke="rgba(0, 169, 165, 1)" stroke-width="1.5"></path>
        <path d="M955.75 666.51L837.35 516.11" stroke="rgba(0, 169, 165, 1)" stroke-width="1.5"></path>
        <path d="M955.75 666.51L1144.79 708.43" stroke="rgba(0, 169, 165, 1)" stroke-width="1.5"></path>
        <path d="M1146.59 -83.7L1146.59 -83.7" stroke="rgba(0, 169, 165, 1)" stroke-width="1.5"></path>
        <path d="M1146.59 -83.7L1277.1 -111.85" stroke="rgba(0, 169, 165, 1)" stroke-width="1.5"></path>
        <path d="M1096.06 244.23L1096.06 244.23" stroke="rgba(0, 169, 165, 1)" stroke-width="1.5"></path>
        <path d="M1096.06 244.23L1125.29 404.63" stroke="rgba(0, 169, 165, 1)" stroke-width="1.5"></path>
        <path d="M1096.06 244.23L1280.12 246.66" stroke="rgba(0, 169, 165, 1)" stroke-width="1.5"></path>
        <path d="M1096.06 244.23L962.07 411.15" stroke="rgba(0, 169, 165, 1)" stroke-width="1.5"></path>
        <path d="M1096.06 244.23L1268.34 104.06" stroke="rgba(0, 169, 165, 1)" stroke-width="1.5"></path>
        <path d="M1125.29 404.63L1125.29 404.63" stroke="rgba(0, 169, 165, 1)" stroke-width="1.5"></path>
        <path d="M1125.29 404.63L1145.85 526.48" stroke="rgba(0, 169, 165, 1)" stroke-width="1.5"></path>
        <path d="M1125.29 404.63L1008.41 511.4" stroke="rgba(0, 169, 165, 1)" stroke-width="1.5"></path>
        <path d="M1125.29 404.63L1298.9 377.32" stroke="rgba(0, 169, 165, 1)" stroke-width="1.5"></path>
        <path d="M1125.29 404.63L1269.05 535.38" stroke="rgba(0, 169, 165, 1)" stroke-width="1.5"></path>
        <path d="M1145.85 526.48L1145.85 526.48" stroke="rgba(0, 169, 165, 1)" stroke-width="1.5"></path>
        <path d="M1145.85 526.48L1269.05 535.38" stroke="rgba(0, 169, 165, 1)" stroke-width="1.5"></path>
        <path d="M1145.85 526.48L1262.62 655.53" stroke="rgba(0, 169, 165, 1)" stroke-width="1.5"></path>
        <path d="M1145.85 526.48L1144.79 708.43" stroke="rgba(0, 169, 165, 1)" stroke-width="1.5"></path>
        <path d="M1144.79 708.43L1144.79 708.43" stroke="rgba(0, 169, 165, 1)" stroke-width="1.5"></path>
        <path d="M1144.79 708.43L1262.62 655.53" stroke="rgba(0, 169, 165, 1)" stroke-width="1.5"></path>
        <path d="M1144.79 708.43L1269.05 535.38" stroke="rgba(0, 169, 165, 1)" stroke-width="1.5"></path>
        <path d="M1144.79 708.43L1008.41 511.4" stroke="rgba(0, 169, 165, 1)" stroke-width="1.5"></path>
        <path d="M1144.79 708.43L1388.52 528.05" stroke="rgba(0, 169, 165, 1)" stroke-width="1.5"></path>
        <path d="M1277.1 -111.85L1277.1 -111.85" stroke="rgba(0, 169, 165, 1)" stroke-width="1.5"></path>
        <path d="M1277.1 -111.85L1438.99 -108.96" stroke="rgba(0, 169, 165, 1)" stroke-width="1.5"></path>
        <path d="M1277.1 -111.85L1268.34 104.06" stroke="rgba(0, 169, 165, 1)" stroke-width="1.5"></path>
        <path d="M1277.1 -111.85L1434.24 95.21" stroke="rgba(0, 169, 165, 1)" stroke-width="1.5"></path>
        <path d="M1268.34 104.06L1268.34 104.06" stroke="rgba(0, 169, 165, 1)" stroke-width="1.5"></path>
        <path d="M1268.34 104.06L1280.12 246.66" stroke="rgba(0, 169, 165, 1)" stroke-width="1.5"></path>
        <path d="M1268.34 104.06L1434.24 95.21" stroke="rgba(0, 169, 165, 1)" stroke-width="1.5"></path>
        <path d="M1280.12 246.66L1280.12 246.66" stroke="rgba(0, 169, 165, 1)" stroke-width="1.5"></path>
        <path d="M1280.12 246.66L1298.9 377.32" stroke="rgba(0, 169, 165, 1)" stroke-width="1.5"></path>
        <path d="M1298.9 377.32L1298.9 377.32" stroke="rgba(0, 169, 165, 1)" stroke-width="1.5"></path>
        <path d="M1298.9 377.32L1269.05 535.38" stroke="rgba(0, 169, 165, 1)" stroke-width="1.5"></path>
        <path d="M1269.05 535.38L1269.05 535.38" stroke="rgba(0, 169, 165, 1)" stroke-width="1.5"></path>
        <path d="M1269.05 535.38L1388.52 528.05" stroke="rgba(0, 169, 165, 1)" stroke-width="1.5"></path>
        <path d="M1269.05 535.38L1262.62 655.53" stroke="rgba(0, 169, 165, 1)" stroke-width="1.5"></path>
        <path d="M1262.62 655.53L1262.62 655.53" stroke="rgba(0, 169, 165, 1)" stroke-width="1.5"></path>
        <path d="M1262.62 655.53L1388.52 528.05" stroke="rgba(0, 169, 165, 1)" stroke-width="1.5"></path>
        <path d="M1262.62 655.53L1459.77 649.45" stroke="rgba(0, 169, 165, 1)" stroke-width="1.5"></path>
        <path d="M1438.99 -108.96L1438.99 -108.96" stroke="rgba(0, 169, 165, 1)" stroke-width="1.5"></path>
        <path d="M1438.99 -108.96L1546.49 -68.93" stroke="rgba(0, 169, 165, 1)" stroke-width="1.5"></path>
        <path d="M1438.99 -108.96L1434.24 95.21" stroke="rgba(0, 169, 165, 1)" stroke-width="1.5"></path>
        <path d="M1434.24 95.21L1434.24 95.21" stroke="rgba(0, 169, 165, 1)" stroke-width="1.5"></path>
        <path d="M1434.24 95.21L1561.3 102.28" stroke="rgba(0, 169, 165, 1)" stroke-width="1.5"></path>
        <path d="M1434.24 95.21L1539.94 200.26" stroke="rgba(0, 169, 165, 1)" stroke-width="1.5"></path>
        <path d="M1434.24 95.21L1439.45 252.71" stroke="rgba(0, 169, 165, 1)" stroke-width="1.5"></path>
        <path d="M1434.24 95.21L1546.49 -68.93" stroke="rgba(0, 169, 165, 1)" stroke-width="1.5"></path>
        <path d="M1439.45 252.71L1439.45 252.71" stroke="rgba(0, 169, 165, 1)" stroke-width="1.5"></path>
        <path d="M1439.45 252.71L1539.94 200.26" stroke="rgba(0, 169, 165, 1)" stroke-width="1.5"></path>
        <path d="M1439.45 252.71L1280.12 246.66" stroke="rgba(0, 169, 165, 1)" stroke-width="1.5"></path>
        <path d="M1439.45 252.71L1298.9 377.32" stroke="rgba(0, 169, 165, 1)" stroke-width="1.5"></path>
        <path d="M1439.45 252.71L1561.3 102.28" stroke="rgba(0, 169, 165, 1)" stroke-width="1.5"></path>
        <path d="M1439.45 252.71L1268.34 104.06" stroke="rgba(0, 169, 165, 1)" stroke-width="1.5"></path>
        <path d="M1388.52 528.05L1388.52 528.05" stroke="rgba(0, 169, 165, 1)" stroke-width="1.5"></path>
        <path d="M1388.52 528.05L1459.77 649.45" stroke="rgba(0, 169, 165, 1)" stroke-width="1.5"></path>
        <path d="M1388.52 528.05L1298.9 377.32" stroke="rgba(0, 169, 165, 1)" stroke-width="1.5"></path>
        <path d="M1459.77 649.45L1459.77 649.45" stroke="rgba(0, 169, 165, 1)" stroke-width="1.5"></path>
        <path d="M1546.49 -68.93L1546.49 -68.93" stroke="rgba(0, 169, 165, 1)" stroke-width="1.5"></path>
        <path d="M1546.49 -68.93L1561.3 102.28" stroke="rgba(0, 169, 165, 1)" stroke-width="1.5"></path>
        <path d="M1546.49 -68.93L1539.94 200.26" stroke="rgba(0, 169, 165, 1)" stroke-width="1.5"></path>
        <path d="M1561.3 102.28L1561.3 102.28" stroke="rgba(0, 169, 165, 1)" stroke-width="1.5"></path>
        <path d="M1561.3 102.28L1539.94 200.26" stroke="rgba(0, 169, 165, 1)" stroke-width="1.5"></path>
        <path d="M1561.3 102.28L1438.99 -108.96" stroke="rgba(0, 169, 165, 1)" stroke-width="1.5"></path>
        <path d="M1561.3 102.28L1268.34 104.06" stroke="rgba(0, 169, 165, 1)" stroke-width="1.5"></path>
        <path d="M1539.94 200.26L1539.94 200.26" stroke="rgba(0, 169, 165, 1)" stroke-width="1.5"></path>
        <path d="M1571.09 559.47L1571.09 559.47" stroke="rgba(0, 169, 165, 1)" stroke-width="1.5"></path>
        <path d="M1571.09 559.47L1459.77 649.45" stroke="rgba(0, 169, 165, 1)" stroke-width="1.5"></path>
        <path d="M1571.09 559.47L1388.52 528.05" stroke="rgba(0, 169, 165, 1)" stroke-width="1.5"></path>
        <path d="M1571.09 559.47L1269.05 535.38" stroke="rgba(0, 169, 165, 1)" stroke-width="1.5"></path>
        <path d="M1571.09 559.47L1262.62 655.53" stroke="rgba(0, 169, 165, 1)" stroke-width="1.5"></path>
        <path d="M1571.09 559.47L1298.9 377.32" stroke="rgba(0, 169, 165, 1)" stroke-width="1.5"></path>
        <path d="M1571.09 559.47L1439.45 252.71" stroke="rgba(0, 169, 165, 1)" stroke-width="1.5"></path>
        <circle r="5" cx="-105.3" cy="391.22" fill="rgba(0, 169, 165, 1)"></circle>
        <circle r="5" cx="-42.75" cy="552.8" fill="rgba(0, 169, 165, 1)"></circle>
        <circle r="5" cx="-49.27" cy="657.23" fill="rgba(0, 169, 165, 1)"></circle>
        <circle r="5" cx="61.04" cy="396.41" fill="rgba(0, 169, 165, 1)"></circle>
        <circle r="5" cx="90.8" cy="533.32" fill="rgba(0, 169, 165, 1)"></circle>
        <circle r="5" cx="40.87" cy="696.73" fill="rgba(0, 169, 165, 1)"></circle>
        <circle r="5" cx="261.27" cy="371.93" fill="rgba(0, 169, 165, 1)"></circle>
        <circle r="5" cx="253.36" cy="696.3" fill="rgba(0, 169, 165, 1)"></circle>
        <circle r="5" cx="370.98" cy="402.72" fill="rgba(0, 169, 165, 1)"></circle>
        <circle r="5" cx="349.14" cy="560.73" fill="rgba(0, 169, 165, 1)"></circle>
        <circle r="5" cx="523.72" cy="360.93" fill="rgba(0, 169, 165, 1)"></circle>
        <circle r="5" cx="529.88" cy="557.02" fill="rgba(0, 169, 165, 1)"></circle>
        <circle r="5" cx="640.73" cy="394.36" fill="rgba(0, 169, 165, 1)"></circle>
        <circle r="5" cx="639.56" cy="505.72" fill="rgba(0, 169, 165, 1)"></circle>
        <circle r="5" cx="691.04" cy="708.77" fill="rgba(0, 169, 165, 1)"></circle>
        <circle r="5" cx="832.33" cy="257.37" fill="rgba(0, 169, 165, 1)"></circle>
        <circle r="5" cx="792.11" cy="404.48" fill="rgba(0, 169, 165, 1)"></circle>
        <circle r="5" cx="837.35" cy="516.11" fill="rgba(0, 169, 165, 1)"></circle>
        <circle r="5" cx="801.16" cy="674.95" fill="rgba(0, 169, 165, 1)"></circle>
        <circle r="5" cx="966.67" cy="-40.02" fill="rgba(0, 169, 165, 1)"></circle>
        <circle r="5" cx="1006.98" cy="60.76" fill="rgba(0, 169, 165, 1)"></circle>
        <circle r="5" cx="992.75" cy="247.83" fill="rgba(0, 169, 165, 1)"></circle>
        <circle r="5" cx="962.07" cy="411.15" fill="rgba(0, 169, 165, 1)"></circle>
        <circle r="5" cx="1008.41" cy="511.4" fill="rgba(0, 169, 165, 1)"></circle>
        <circle r="5" cx="955.75" cy="666.51" fill="rgba(0, 169, 165, 1)"></circle>
        <circle r="5" cx="1146.59" cy="-83.7" fill="rgba(0, 169, 165, 1)"></circle>
        <circle r="5" cx="1096.06" cy="244.23" fill="rgba(0, 169, 165, 1)"></circle>
        <circle r="5" cx="1125.29" cy="404.63" fill="rgba(0, 169, 165, 1)"></circle>
        <circle r="5" cx="1145.85" cy="526.48" fill="rgba(0, 169, 165, 1)"></circle>
        <circle r="5" cx="1144.79" cy="708.43" fill="rgba(0, 169, 165, 1)"></circle>
        <circle r="5" cx="1277.1" cy="-111.85" fill="rgba(0, 169, 165, 1)"></circle>
        <circle r="5" cx="1268.34" cy="104.06" fill="rgba(0, 169, 165, 1)"></circle>
        <circle r="5" cx="1280.12" cy="246.66" fill="rgba(0, 169, 165, 1)"></circle>
        <circle r="5" cx="1298.9" cy="377.32" fill="rgba(0, 169, 165, 1)"></circle>
        <circle r="5" cx="1269.05" cy="535.38" fill="rgba(0, 169, 165, 1)"></circle>
        <circle r="5" cx="1262.62" cy="655.53" fill="rgba(0, 169, 165, 1)"></circle>
        <circle r="5" cx="1438.99" cy="-108.96" fill="rgba(0, 169, 165, 1)"></circle>
        <circle r="5" cx="1434.24" cy="95.21" fill="rgba(0, 169, 165, 1)"></circle>
        <circle r="5" cx="1439.45" cy="252.71" fill="rgba(0, 169, 165, 1)"></circle>
        <circle r="5" cx="1388.52" cy="528.05" fill="rgba(0, 169, 165, 1)"></circle>
        <circle r="5" cx="1459.77" cy="649.45" fill="rgba(0, 169, 165, 1)"></circle>
        <circle r="5" cx="1546.49" cy="-68.93" fill="rgba(0, 169, 165, 1)"></circle>
        <circle r="5" cx="1561.3" cy="102.28" fill="rgba(0, 169, 165, 1)"></circle>
        <circle r="5" cx="1539.94" cy="200.26" fill="rgba(0, 169, 165, 1)"></circle>
        <circle r="5" cx="1571.09" cy="559.47" fill="rgba(0, 169, 165, 1)"></circle>
        <path d="M226.33 560.78L226.33 560.78" stroke="hsl(243.5, 100%, 90.2%)" stroke-width="1.5"></path>
        <path d="M226.33 560.78L232.81 643.86" stroke="hsl(243.5, 100%, 90.2%)" stroke-width="1.5"></path>
        <path d="M226.33 560.78L353.63 513.37" stroke="hsl(243.5, 100%, 90.2%)" stroke-width="1.5"></path>
        <path d="M226.33 560.78L356.92 646.13" stroke="hsl(243.5, 100%, 90.2%)" stroke-width="1.5"></path>
        <path d="M226.33 560.78L66.37 545.5" stroke="hsl(243.5, 100%, 90.2%)" stroke-width="1.5"></path>
        <path d="M226.33 560.78L38.38 711.32" stroke="hsl(243.5, 100%, 90.2%)" stroke-width="1.5"></path>
        <path d="M226.33 560.78L490.28 516.53" stroke="hsl(243.5, 100%, 90.2%)" stroke-width="1.5"></path>
        <path d="M821.68 676.15L821.68 676.15" stroke="hsl(243.5, 100%, 90.2%)" stroke-width="1.5"></path>
        <path d="M821.68 676.15L959.75 673.81" stroke="hsl(243.5, 100%, 90.2%)" stroke-width="1.5"></path>
        <path d="M821.68 676.15L653.18 647.4" stroke="hsl(243.5, 100%, 90.2%)" stroke-width="1.5"></path>
        <path d="M821.68 676.15L822.76 487.83" stroke="hsl(243.5, 100%, 90.2%)" stroke-width="1.5"></path>
        <path d="M1144.27 61.52L1144.27 61.52" stroke="hsl(243.5, 100%, 90.2%)" stroke-width="1.5"></path>
        <path d="M1144.27 61.52L1309.45 64.41" stroke="hsl(243.5, 100%, 90.2%)" stroke-width="1.5"></path>
        <path d="M1113.08 245.6L1113.08 245.6" stroke="hsl(243.5, 100%, 90.2%)" stroke-width="1.5"></path>
        <path d="M1113.08 245.6L1136.79 340.09" stroke="hsl(243.5, 100%, 90.2%)" stroke-width="1.5"></path>
        <path d="M1113.08 245.6L1144.27 61.52" stroke="hsl(243.5, 100%, 90.2%)" stroke-width="1.5"></path>
        <path d="M1113.08 245.6L1306.27 241.34" stroke="hsl(243.5, 100%, 90.2%)" stroke-width="1.5"></path>
        <path d="M1113.08 245.6L947.2 353.28" stroke="hsl(243.5, 100%, 90.2%)" stroke-width="1.5"></path>
        <path d="M1293.18 -95.7L1293.18 -95.7" stroke="hsl(243.5, 100%, 90.2%)" stroke-width="1.5"></path>
        <path d="M1293.18 -95.7L1404.06 -104.56" stroke="hsl(243.5, 100%, 90.2%)" stroke-width="1.5"></path>
        <path d="M1293.18 -95.7L1309.45 64.41" stroke="hsl(243.5, 100%, 90.2%)" stroke-width="1.5"></path>
        <path d="M1293.18 -95.7L1144.27 61.52" stroke="hsl(243.5, 100%, 90.2%)" stroke-width="1.5"></path>
        <path d="M1293.18 -95.7L1457.73 107.77" stroke="hsl(243.5, 100%, 90.2%)" stroke-width="1.5"></path>
        <path d="M1306.27 241.34L1306.27 241.34" stroke="hsl(243.5, 100%, 90.2%)" stroke-width="1.5"></path>
        <path d="M1306.27 241.34L1446.88 243.8" stroke="hsl(243.5, 100%, 90.2%)" stroke-width="1.5"></path>
        <path d="M1306.27 241.34L1264.32 386.66" stroke="hsl(243.5, 100%, 90.2%)" stroke-width="1.5"></path>
        <path d="M1306.27 241.34L1309.45 64.41" stroke="hsl(243.5, 100%, 90.2%)" stroke-width="1.5"></path>
        <path d="M1306.27 241.34L1136.79 340.09" stroke="hsl(243.5, 100%, 90.2%)" stroke-width="1.5"></path>
        <path d="M1312.25 490.34L1312.25 490.34" stroke="hsl(243.5, 100%, 90.2%)" stroke-width="1.5"></path>
        <path d="M1312.25 490.34L1264.32 386.66" stroke="hsl(243.5, 100%, 90.2%)" stroke-width="1.5"></path>
        <path d="M1312.25 490.34L1418.01 404.31" stroke="hsl(243.5, 100%, 90.2%)" stroke-width="1.5"></path>
        <path d="M1312.25 490.34L1435.77 562.18" stroke="hsl(243.5, 100%, 90.2%)" stroke-width="1.5"></path>
        <path d="M1312.25 490.34L1162.4 503.38" stroke="hsl(243.5, 100%, 90.2%)" stroke-width="1.5"></path>
        <path d="M1312.25 490.34L1247.47 672.85" stroke="hsl(243.5, 100%, 90.2%)" stroke-width="1.5"></path>
        <path d="M1404.06 -104.56L1404.06 -104.56" stroke="hsl(243.5, 100%, 90.2%)" stroke-width="1.5"></path>
        <path d="M1404.06 -104.56L1309.45 64.41" stroke="hsl(243.5, 100%, 90.2%)" stroke-width="1.5"></path>
        <path d="M1404.06 -104.56L1598.37 -78.11" stroke="hsl(243.5, 100%, 90.2%)" stroke-width="1.5"></path>
        <path d="M1457.73 107.77L1457.73 107.77" stroke="hsl(243.5, 100%, 90.2%)" stroke-width="1.5"></path>
        <path d="M1457.73 107.77L1575.21 90.31" stroke="hsl(243.5, 100%, 90.2%)" stroke-width="1.5"></path>
        <path d="M1457.73 107.77L1561.34 193.04" stroke="hsl(243.5, 100%, 90.2%)" stroke-width="1.5"></path>
        <path d="M1583.89 643.32L1583.89 643.32" stroke="hsl(243.5, 100%, 90.2%)" stroke-width="1.5"></path>
        <path d="M1583.89 643.32L1543.57 490.3" stroke="hsl(243.5, 100%, 90.2%)" stroke-width="1.5"></path>
        <path d="M1583.89 643.32L1432.83 708.79" stroke="hsl(243.5, 100%, 90.2%)" stroke-width="1.5"></path>
        <path d="M1583.89 643.32L1435.77 562.18" stroke="hsl(243.5, 100%, 90.2%)" stroke-width="1.5"></path>
        <path d="M-81.28 531.41L-81.28 531.41" stroke="hsl(243.5, 100%, 90.2%)" stroke-width="1.5"></path>
        <path d="M-81.28 531.41L66.37 545.5" stroke="hsl(243.5, 100%, 90.2%)" stroke-width="1.5"></path>
        <path d="M-81.28 531.41L-57.38 691.2" stroke="hsl(243.5, 100%, 90.2%)" stroke-width="1.5"></path>
        <path d="M-81.28 531.41L38.38 711.32" stroke="hsl(243.5, 100%, 90.2%)" stroke-width="1.5"></path>
        <path d="M-81.28 531.41L226.33 560.78" stroke="hsl(243.5, 100%, 90.2%)" stroke-width="1.5"></path>
        <path d="M-81.28 531.41L232.81 643.86" stroke="hsl(243.5, 100%, 90.2%)" stroke-width="1.5"></path>
        <path d="M-81.28 531.41L353.63 513.37" stroke="hsl(243.5, 100%, 90.2%)" stroke-width="1.5"></path>
        <path d="M-57.38 691.2L-57.38 691.2" stroke="hsl(243.5, 100%, 90.2%)" stroke-width="1.5"></path>
        <path d="M-57.38 691.2L38.38 711.32" stroke="hsl(243.5, 100%, 90.2%)" stroke-width="1.5"></path>
        <path d="M-57.38 691.2L66.37 545.5" stroke="hsl(243.5, 100%, 90.2%)" stroke-width="1.5"></path>
        <path d="M-57.38 691.2L232.81 643.86" stroke="hsl(243.5, 100%, 90.2%)" stroke-width="1.5"></path>
        <path d="M-57.38 691.2L226.33 560.78" stroke="hsl(243.5, 100%, 90.2%)" stroke-width="1.5"></path>
        <path d="M-57.38 691.2L356.92 646.13" stroke="hsl(243.5, 100%, 90.2%)" stroke-width="1.5"></path>
        <path d="M66.37 545.5L66.37 545.5" stroke="hsl(243.5, 100%, 90.2%)" stroke-width="1.5"></path>
        <path d="M38.38 711.32L38.38 711.32" stroke="hsl(243.5, 100%, 90.2%)" stroke-width="1.5"></path>
        <path d="M232.81 643.86L232.81 643.86" stroke="hsl(243.5, 100%, 90.2%)" stroke-width="1.5"></path>
        <path d="M232.81 643.86L356.92 646.13" stroke="hsl(243.5, 100%, 90.2%)" stroke-width="1.5"></path>
        <path d="M232.81 643.86L353.63 513.37" stroke="hsl(243.5, 100%, 90.2%)" stroke-width="1.5"></path>
        <path d="M232.81 643.86L66.37 545.5" stroke="hsl(243.5, 100%, 90.2%)" stroke-width="1.5"></path>
        <path d="M232.81 643.86L38.38 711.32" stroke="hsl(243.5, 100%, 90.2%)" stroke-width="1.5"></path>
        <path d="M232.81 643.86L490.28 516.53" stroke="hsl(243.5, 100%, 90.2%)" stroke-width="1.5"></path>
        <path d="M353.63 513.37L353.63 513.37" stroke="hsl(243.5, 100%, 90.2%)" stroke-width="1.5"></path>
        <path d="M353.63 513.37L356.92 646.13" stroke="hsl(243.5, 100%, 90.2%)" stroke-width="1.5"></path>
        <path d="M353.63 513.37L490.28 516.53" stroke="hsl(243.5, 100%, 90.2%)" stroke-width="1.5"></path>
        <path d="M356.92 646.13L356.92 646.13" stroke="hsl(243.5, 100%, 90.2%)" stroke-width="1.5"></path>
        <path d="M490.28 516.53L490.28 516.53" stroke="hsl(243.5, 100%, 90.2%)" stroke-width="1.5"></path>
        <path d="M490.28 516.53L536.33 658.88" stroke="hsl(243.5, 100%, 90.2%)" stroke-width="1.5"></path>
        <path d="M490.28 516.53L664.35 528.74" stroke="hsl(243.5, 100%, 90.2%)" stroke-width="1.5"></path>
        <path d="M490.28 516.53L356.92 646.13" stroke="hsl(243.5, 100%, 90.2%)" stroke-width="1.5"></path>
        <path d="M490.28 516.53L653.18 647.4" stroke="hsl(243.5, 100%, 90.2%)" stroke-width="1.5"></path>
        <path d="M490.28 516.53L711.34 387.27" stroke="hsl(243.5, 100%, 90.2%)" stroke-width="1.5"></path>
        <path d="M536.33 658.88L536.33 658.88" stroke="hsl(243.5, 100%, 90.2%)" stroke-width="1.5"></path>
        <path d="M536.33 658.88L653.18 647.4" stroke="hsl(243.5, 100%, 90.2%)" stroke-width="1.5"></path>
        <path d="M711.34 387.27L711.34 387.27" stroke="hsl(243.5, 100%, 90.2%)" stroke-width="1.5"></path>
        <path d="M711.34 387.27L664.35 528.74" stroke="hsl(243.5, 100%, 90.2%)" stroke-width="1.5"></path>
        <path d="M711.34 387.27L822.76 487.83" stroke="hsl(243.5, 100%, 90.2%)" stroke-width="1.5"></path>
        <path d="M711.34 387.27L862.05 359.92" stroke="hsl(243.5, 100%, 90.2%)" stroke-width="1.5"></path>
        <path d="M664.35 528.74L664.35 528.74" stroke="hsl(243.5, 100%, 90.2%)" stroke-width="1.5"></path>
        <path d="M664.35 528.74L653.18 647.4" stroke="hsl(243.5, 100%, 90.2%)" stroke-width="1.5"></path>
        <path d="M664.35 528.74L822.76 487.83" stroke="hsl(243.5, 100%, 90.2%)" stroke-width="1.5"></path>
        <path d="M664.35 528.74L536.33 658.88" stroke="hsl(243.5, 100%, 90.2%)" stroke-width="1.5"></path>
        <path d="M653.18 647.4L653.18 647.4" stroke="hsl(243.5, 100%, 90.2%)" stroke-width="1.5"></path>
        <path d="M862.05 359.92L862.05 359.92" stroke="hsl(243.5, 100%, 90.2%)" stroke-width="1.5"></path>
        <path d="M862.05 359.92L947.2 353.28" stroke="hsl(243.5, 100%, 90.2%)" stroke-width="1.5"></path>
        <path d="M862.05 359.92L822.76 487.83" stroke="hsl(243.5, 100%, 90.2%)" stroke-width="1.5"></path>
        <path d="M862.05 359.92L960.58 524.89" stroke="hsl(243.5, 100%, 90.2%)" stroke-width="1.5"></path>
        <path d="M822.76 487.83L822.76 487.83" stroke="hsl(243.5, 100%, 90.2%)" stroke-width="1.5"></path>
        <path d="M822.76 487.83L960.58 524.89" stroke="hsl(243.5, 100%, 90.2%)" stroke-width="1.5"></path>
        <path d="M822.76 487.83L947.2 353.28" stroke="hsl(243.5, 100%, 90.2%)" stroke-width="1.5"></path>
        <path d="M947.2 353.28L947.2 353.28" stroke="hsl(243.5, 100%, 90.2%)" stroke-width="1.5"></path>
        <path d="M947.2 353.28L960.58 524.89" stroke="hsl(243.5, 100%, 90.2%)" stroke-width="1.5"></path>
        <path d="M947.2 353.28L1136.79 340.09" stroke="hsl(243.5, 100%, 90.2%)" stroke-width="1.5"></path>
        <path d="M947.2 353.28L711.34 387.27" stroke="hsl(243.5, 100%, 90.2%)" stroke-width="1.5"></path>
        <path d="M960.58 524.89L960.58 524.89" stroke="hsl(243.5, 100%, 90.2%)" stroke-width="1.5"></path>
        <path d="M960.58 524.89L959.75 673.81" stroke="hsl(243.5, 100%, 90.2%)" stroke-width="1.5"></path>
        <path d="M959.75 673.81L959.75 673.81" stroke="hsl(243.5, 100%, 90.2%)" stroke-width="1.5"></path>
        <path d="M959.75 673.81L1157.87 641.5" stroke="hsl(243.5, 100%, 90.2%)" stroke-width="1.5"></path>
        <path d="M959.75 673.81L822.76 487.83" stroke="hsl(243.5, 100%, 90.2%)" stroke-width="1.5"></path>
        <path d="M959.75 673.81L1162.4 503.38" stroke="hsl(243.5, 100%, 90.2%)" stroke-width="1.5"></path>
        <path d="M959.75 673.81L1247.47 672.85" stroke="hsl(243.5, 100%, 90.2%)" stroke-width="1.5"></path>
        <path d="M1136.79 340.09L1136.79 340.09" stroke="hsl(243.5, 100%, 90.2%)" stroke-width="1.5"></path>
        <path d="M1136.79 340.09L1264.32 386.66" stroke="hsl(243.5, 100%, 90.2%)" stroke-width="1.5"></path>
        <path d="M1136.79 340.09L1162.4 503.38" stroke="hsl(243.5, 100%, 90.2%)" stroke-width="1.5"></path>
        <path d="M1162.4 503.38L1162.4 503.38" stroke="hsl(243.5, 100%, 90.2%)" stroke-width="1.5"></path>
        <path d="M1162.4 503.38L1157.87 641.5" stroke="hsl(243.5, 100%, 90.2%)" stroke-width="1.5"></path>
        <path d="M1157.87 641.5L1157.87 641.5" stroke="hsl(243.5, 100%, 90.2%)" stroke-width="1.5"></path>
        <path d="M1157.87 641.5L1247.47 672.85" stroke="hsl(243.5, 100%, 90.2%)" stroke-width="1.5"></path>
        <path d="M1157.87 641.5L1312.25 490.34" stroke="hsl(243.5, 100%, 90.2%)" stroke-width="1.5"></path>
        <path d="M1157.87 641.5L960.58 524.89" stroke="hsl(243.5, 100%, 90.2%)" stroke-width="1.5"></path>
        <path d="M1309.45 64.41L1309.45 64.41" stroke="hsl(243.5, 100%, 90.2%)" stroke-width="1.5"></path>
        <path d="M1309.45 64.41L1457.73 107.77" stroke="hsl(243.5, 100%, 90.2%)" stroke-width="1.5"></path>
        <path d="M1264.32 386.66L1264.32 386.66" stroke="hsl(243.5, 100%, 90.2%)" stroke-width="1.5"></path>
        <path d="M1247.47 672.85L1247.47 672.85" stroke="hsl(243.5, 100%, 90.2%)" stroke-width="1.5"></path>
        <path d="M1247.47 672.85L1432.83 708.79" stroke="hsl(243.5, 100%, 90.2%)" stroke-width="1.5"></path>
        <path d="M1446.88 243.8L1446.88 243.8" stroke="hsl(243.5, 100%, 90.2%)" stroke-width="1.5"></path>
        <path d="M1446.88 243.8L1561.34 193.04" stroke="hsl(243.5, 100%, 90.2%)" stroke-width="1.5"></path>
        <path d="M1446.88 243.8L1457.73 107.77" stroke="hsl(243.5, 100%, 90.2%)" stroke-width="1.5"></path>
        <path d="M1446.88 243.8L1418.01 404.31" stroke="hsl(243.5, 100%, 90.2%)" stroke-width="1.5"></path>
        <path d="M1446.88 243.8L1542.15 409.7" stroke="hsl(243.5, 100%, 90.2%)" stroke-width="1.5"></path>
        <path d="M1446.88 243.8L1575.21 90.31" stroke="hsl(243.5, 100%, 90.2%)" stroke-width="1.5"></path>
        <path d="M1418.01 404.31L1418.01 404.31" stroke="hsl(243.5, 100%, 90.2%)" stroke-width="1.5"></path>
        <path d="M1418.01 404.31L1542.15 409.7" stroke="hsl(243.5, 100%, 90.2%)" stroke-width="1.5"></path>
        <path d="M1418.01 404.31L1543.57 490.3" stroke="hsl(243.5, 100%, 90.2%)" stroke-width="1.5"></path>
        <path d="M1435.77 562.18L1435.77 562.18" stroke="hsl(243.5, 100%, 90.2%)" stroke-width="1.5"></path>
        <path d="M1435.77 562.18L1543.57 490.3" stroke="hsl(243.5, 100%, 90.2%)" stroke-width="1.5"></path>
        <path d="M1432.83 708.79L1432.83 708.79" stroke="hsl(243.5, 100%, 90.2%)" stroke-width="1.5"></path>
        <path d="M1432.83 708.79L1435.77 562.18" stroke="hsl(243.5, 100%, 90.2%)" stroke-width="1.5"></path>
        <path d="M1432.83 708.79L1543.57 490.3" stroke="hsl(243.5, 100%, 90.2%)" stroke-width="1.5"></path>
        <path d="M1432.83 708.79L1312.25 490.34" stroke="hsl(243.5, 100%, 90.2%)" stroke-width="1.5"></path>
        <path d="M1598.37 -78.11L1598.37 -78.11" stroke="hsl(243.5, 100%, 90.2%)" stroke-width="1.5"></path>
        <path d="M1598.37 -78.11L1575.21 90.31" stroke="hsl(243.5, 100%, 90.2%)" stroke-width="1.5"></path>
        <path d="M1598.37 -78.11L1457.73 107.77" stroke="hsl(243.5, 100%, 90.2%)" stroke-width="1.5"></path>
        <path d="M1598.37 -78.11L1561.34 193.04" stroke="hsl(243.5, 100%, 90.2%)" stroke-width="1.5"></path>
        <path d="M1598.37 -78.11L1293.18 -95.7" stroke="hsl(243.5, 100%, 90.2%)" stroke-width="1.5"></path>
        <path d="M1575.21 90.31L1575.21 90.31" stroke="hsl(243.5, 100%, 90.2%)" stroke-width="1.5"></path>
        <path d="M1575.21 90.31L1561.34 193.04" stroke="hsl(243.5, 100%, 90.2%)" stroke-width="1.5"></path>
        <path d="M1561.34 193.04L1561.34 193.04" stroke="hsl(243.5, 100%, 90.2%)" stroke-width="1.5"></path>
        <path d="M1561.34 193.04L1542.15 409.7" stroke="hsl(243.5, 100%, 90.2%)" stroke-width="1.5"></path>
        <path d="M1561.34 193.04L1418.01 404.31" stroke="hsl(243.5, 100%, 90.2%)" stroke-width="1.5"></path>
        <path d="M1542.15 409.7L1542.15 409.7" stroke="hsl(243.5, 100%, 90.2%)" stroke-width="1.5"></path>
        <path d="M1542.15 409.7L1543.57 490.3" stroke="hsl(243.5, 100%, 90.2%)" stroke-width="1.5"></path>
        <path d="M1542.15 409.7L1435.77 562.18" stroke="hsl(243.5, 100%, 90.2%)" stroke-width="1.5"></path>
        <path d="M1543.57 490.3L1543.57 490.3" stroke="hsl(243.5, 100%, 90.2%)" stroke-width="1.5"></path>
        <circle r="25" cx="226.33" cy="560.78" fill="url(#SvgjsRadialGradient1530)"></circle>
        <circle r="25" cx="821.68" cy="676.15" fill="url(#SvgjsRadialGradient1530)"></circle>
        <circle r="25" cx="1144.27" cy="61.52" fill="url(#SvgjsRadialGradient1530)"></circle>
        <circle r="25" cx="1113.08" cy="245.6" fill="url(#SvgjsRadialGradient1530)"></circle>
        <circle r="25" cx="1293.18" cy="-95.7" fill="url(#SvgjsRadialGradient1530)"></circle>
        <circle r="25" cx="1306.27" cy="241.34" fill="url(#SvgjsRadialGradient1530)"></circle>
        <circle r="25" cx="1312.25" cy="490.34" fill="url(#SvgjsRadialGradient1530)"></circle>
        <circle r="25" cx="1404.06" cy="-104.56" fill="url(#SvgjsRadialGradient1530)"></circle>
        <circle r="25" cx="1457.73" cy="107.77" fill="url(#SvgjsRadialGradient1530)"></circle>
        <circle r="25" cx="1583.89" cy="643.32" fill="url(#SvgjsRadialGradient1530)"></circle>
        <circle r="5" cx="-81.28" cy="531.41" fill="#b6b1ff"></circle>
        <circle r="5" cx="-57.38" cy="691.2" fill="#b6b1ff"></circle>
        <circle r="5" cx="66.37" cy="545.5" fill="#b6b1ff"></circle>
        <circle r="5" cx="38.38" cy="711.32" fill="#b6b1ff"></circle>
        <circle r="5" cx="232.81" cy="643.86" fill="#b6b1ff"></circle>
        <circle r="5" cx="353.63" cy="513.37" fill="#b6b1ff"></circle>
        <circle r="5" cx="356.92" cy="646.13" fill="#b6b1ff"></circle>
        <circle r="5" cx="490.28" cy="516.53" fill="#b6b1ff"></circle>
        <circle r="5" cx="536.33" cy="658.88" fill="#b6b1ff"></circle>
        <circle r="5" cx="711.34" cy="387.27" fill="#b6b1ff"></circle>
        <circle r="5" cx="664.35" cy="528.74" fill="#b6b1ff"></circle>
        <circle r="5" cx="653.18" cy="647.4" fill="#b6b1ff"></circle>
        <circle r="5" cx="862.05" cy="359.92" fill="#b6b1ff"></circle>
        <circle r="5" cx="822.76" cy="487.83" fill="#b6b1ff"></circle>
        <circle r="5" cx="947.2" cy="353.28" fill="#b6b1ff"></circle>
        <circle r="5" cx="960.58" cy="524.89" fill="#b6b1ff"></circle>
        <circle r="5" cx="959.75" cy="673.81" fill="#b6b1ff"></circle>
        <circle r="5" cx="1136.79" cy="340.09" fill="#b6b1ff"></circle>
        <circle r="5" cx="1162.4" cy="503.38" fill="#b6b1ff"></circle>
        <circle r="5" cx="1157.87" cy="641.5" fill="#b6b1ff"></circle>
        <circle r="5" cx="1309.45" cy="64.41" fill="#b6b1ff"></circle>
        <circle r="5" cx="1264.32" cy="386.66" fill="#b6b1ff"></circle>
        <circle r="5" cx="1247.47" cy="672.85" fill="#b6b1ff"></circle>
        <circle r="5" cx="1446.88" cy="243.8" fill="#b6b1ff"></circle>
        <circle r="5" cx="1418.01" cy="404.31" fill="#b6b1ff"></circle>
        <circle r="5" cx="1435.77" cy="562.18" fill="#b6b1ff"></circle>
        <circle r="5" cx="1432.83" cy="708.79" fill="#b6b1ff"></circle>
        <circle r="5" cx="1598.37" cy="-78.11" fill="#b6b1ff"></circle>
        <circle r="5" cx="1575.21" cy="90.31" fill="#b6b1ff"></circle>
        <circle r="5" cx="1561.34" cy="193.04" fill="#b6b1ff"></circle>
        <circle r="5" cx="1542.15" cy="409.7" fill="#b6b1ff"></circle>
        <circle r="5" cx="1543.57" cy="490.3" fill="#b6b1ff"></circle>
    </g>
    <defs>
        <mask id="SvgjsMask1528">
            <rect width="1440" height="560" fill="#ffffff"></rect>
        </mask>
        <linearGradient x1="84.72%" y1="139.29%" x2="15.28%" y2="-39.29%" gradientUnits="userSpaceOnUse" id="SvgjsLinearGradient1529">
            <stop stop-color="#0e2a47" offset="0"></stop>
            <stop stop-color="rgba(0, 69, 158, 1)" offset="1"></stop>
        </linearGradient>
        <radialGradient id="SvgjsRadialGradient1530">
            <stop stop-color="#ffffff" offset="0.1"></stop>
            <stop stop-color="rgba(108, 99, 255, 1)" offset="0.2"></stop>
            <stop stop-color="rgba(108, 99, 255, 0)" offset="1"></stop>
        </radialGradient>
    </defs>
</svg>