<svg xmlns="http://www.w3.org/2000/svg" version="1.1" xmlns:xlink="http://www.w3.org/1999/xlink" xmlns:svgjs="http://svgjs.com/svgjs" width="1440" height="560" preserveAspectRatio="none" viewBox="0 0 1440 560">
    <g mask="url(&quot;#SvgjsMask1016&quot;)" fill="none">
        <rect width="1440" height="560" x="0" y="0" fill="rgba(0, 0, 0, 1)"></rect>
        <path d="M1222.27 487.3a27.9 27.9 0 1 0-53.29 16.54z" fill="rgba(11, 83, 81, 1)"></path>
        <path d="M997.75 326.87L1024.3 326.87L1024.3 374.14L997.75 374.14z" stroke="rgba(182, 177, 255, 1)"></path>
        <path d="M362.16 474.35 a39.93 39.93 0 1 0 79.86 0 a39.93 39.93 0 1 0 -79.86 0z" stroke="rgba(182, 177, 255, 1)"></path>
        <path d="M1033.92 138.1L1059.48 138.1L1059.48 163.97L1033.92 163.97z" fill="rgba(0, 169, 165, 1)"></path>
        <path d="M1126.08 343.28 a31.17 31.17 0 1 0 62.34 0 a31.17 31.17 0 1 0 -62.34 0z" fill="rgba(11, 83, 81, 1)"></path>
        <path d="M582.62 478.19 a44.6 44.6 0 1 0 89.2 0 a44.6 44.6 0 1 0 -89.2 0z" fill="rgba(182, 177, 255, 1)"></path>
        <path d="M1338.38 319.89a38.07 38.07 0 1 0-75.36 10.94z" stroke="rgba(0, 169, 165, 1)"></path>
        <path d="M429.52 412.12 a10.67 10.67 0 1 0 21.34 0 a10.67 10.67 0 1 0 -21.34 0z" stroke="rgba(11, 83, 81, 1)"></path>
        <path d="M415.78 209.73 a49.64 49.64 0 1 0 99.28 0 a49.64 49.64 0 1 0 -99.28 0z" fill="rgba(11, 83, 81, 1)"></path>
        <path d="M113.39 346.55L144.82 346.55L144.82 377.98L113.39 377.98z" fill="rgba(108, 99, 255, 1)"></path>
        <path d="M1270.62 191.03 a49.84 49.84 0 1 0 99.68 0 a49.84 49.84 0 1 0 -99.68 0z" stroke="rgba(0, 169, 165, 1)"></path>
        <path d="M279.8 76.33a32.15 32.15 0 1 0 56.83 30.08z" fill="rgba(108, 99, 255, 1)"></path>
        <path d="M340.02 182.05a28.21 28.21 0 1 0 31.14 47.05z" stroke="rgba(11, 83, 81, 1)"></path>
        <path d="M1000.1 126.86a40.4 40.4 0 1 0 28.94-75.45z" fill="rgba(11, 83, 81, 1)"></path>
        <path d="M1024.13 79.05a29.8 29.8 0 1 0-53.77-25.73z" fill="rgba(108, 99, 255, 1)"></path>
        <path d="M1126.71 366.3L1152.15 366.3L1152.15 419.51L1126.71 419.51z" stroke="rgba(11, 83, 81, 1)"></path>
        <path d="M991.61 168.61L1018.65 168.61L1018.65 172.77L991.61 172.77z" fill="rgba(11, 83, 81, 1)"></path>
        <path d="M960.55 327.93L1014.47 327.93L1014.47 381.85L960.55 381.85z" fill="rgba(182, 177, 255, 1)"></path>
        <path d="M1143.84 349.77L1189.02 349.77L1189.02 394.95L1143.84 394.95z" fill="rgba(182, 177, 255, 1)"></path>
        <path d="M935.04 187.89L977.78 187.89L977.78 230.63L935.04 230.63z" stroke="rgba(0, 169, 165, 1)"></path>
        <path d="M101.74 104.53L140.92 104.53L140.92 105.34L101.74 105.34z" fill="rgba(0, 169, 165, 1)"></path>
        <path d="M350.48 98.58L393.73 98.58L393.73 141.83L350.48 141.83z" fill="rgba(182, 177, 255, 1)"></path>
        <path d="M14.79 359.56L20.48 359.56L20.48 365.25L14.79 365.25z" stroke="rgba(11, 83, 81, 1)"></path>
        <path d="M965.39 155.33L982.82 155.33L982.82 187.54L965.39 187.54z" stroke="rgba(0, 169, 165, 1)"></path>
        <path d="M181.23 433.65 a27.32 27.32 0 1 0 54.64 0 a27.32 27.32 0 1 0 -54.64 0z" fill="rgba(0, 169, 165, 1)"></path>
        <path d="M791.04 273.26 a4.86 4.86 0 1 0 9.72 0 a4.86 4.86 0 1 0 -9.72 0z" stroke="rgba(108, 99, 255, 1)"></path>
        <path d="M870.09 353.15L887.82 353.15L887.82 370.88L870.09 370.88z" stroke="rgba(108, 99, 255, 1)"></path>
        <path d="M892.19 343.22L897.37 343.22L897.37 349.43L892.19 349.43z" fill="rgba(108, 99, 255, 1)"></path>
        <path d="M315.34 516.04 a21.13 21.13 0 1 0 42.26 0 a21.13 21.13 0 1 0 -42.26 0z" fill="rgba(0, 169, 165, 1)"></path>
        <path d="M88.49 153.66a27.36 27.36 0 1 0 54.02 8.68z" stroke="rgba(0, 169, 165, 1)"></path>
        <path d="M60.99 391.29L88.45 391.29L88.45 418.75L60.99 418.75z" fill="rgba(182, 177, 255, 1)"></path>
        <path d="M53.4 519.43L98.08 519.43L98.08 564.11L53.4 564.11z" fill="rgba(108, 99, 255, 1)"></path>
        <path d="M1178.44 436.06a32.73 32.73 0 1 0 59.09 28.17z" fill="rgba(182, 177, 255, 1)"></path>
    </g>
    <defs>
        <mask id="SvgjsMask1016">
            <rect width="1440" height="560" fill="#ffffff"></rect>
        </mask>
    </defs>
</svg>